<?xml version="1.0" encoding="UTF-8" standalone="no"?><!-- Generator: Gravit.io --><svg xmlns="http://www.w3.org/2000/svg" xmlns:xlink="http://www.w3.org/1999/xlink" style="isolation:isolate" viewBox="0 0 1900 450" width="1900pt" height="450pt"><defs><clipPath id="_clipPath_7F0ypyKuUOd4OGEvCE2MeBdEbDVUFP2t"><rect width="1900" height="450"/></clipPath></defs><g clip-path="url(#_clipPath_7F0ypyKuUOd4OGEvCE2MeBdEbDVUFP2t)"><rect x="0" y="0" width="1900.5" height="450.077" transform="matrix(1,0,0,1,0,0)" fill="rgb(0,0,0)"/><path d=" M 1056.241 167.161 L 1056.241 173.466 L 1043.649 173.466 L 1043.649 167.161 C 1043.649 124.964 1000.806 92.207 942.865 91.576 C 885.538 91.576 842.704 125.594 842.078 167.161 C 842.078 249.674 1069.474 236.455 1068.846 332.831 C 1068.846 381.325 1011.519 421.639 942.865 421.008 C 874.825 421.008 816.884 381.325 816.884 332.831 L 816.884 326.525 L 829.472 326.525 L 829.472 332.831 C 829.472 375.033 879.241 409.046 942.865 408.42 C 1007.112 408.42 1056.872 375.655 1056.241 332.831 C 1056.241 249.674 830.103 264.172 829.472 167.161 C 829.472 118.658 882.392 79.611 942.865 78.974 C 1003.961 78.974 1056.241 118.658 1056.241 167.161 Z " fill="rgb(255,255,255)"/><path d=" M 1226.624 126.382 L 1226.624 121.214 L 1239.211 121.214 L 1239.211 126.382 L 1239.211 396.465 L 1239.211 401.623 L 1226.624 401.623 L 1226.624 396.465 L 1226.624 126.382 L 1226.624 126.382 Z  M 1232.915 26.194 L 1226.624 26.194 L 1226.624 15.863 L 1232.915 15.863 L 1233.55 15.863 L 1239.846 15.863 L 1239.846 26.194 L 1233.55 26.194 L 1232.915 26.194 L 1232.915 26.194 Z " fill="rgb(255,255,255)"/><path d=" M 1611.829 167.161 L 1611.829 173.466 L 1599.219 173.466 L 1599.219 167.161 C 1599.219 124.964 1556.394 92.207 1498.435 91.576 C 1441.121 91.576 1398.283 125.594 1397.656 167.161 C 1397.656 249.674 1625.052 236.455 1624.417 332.831 C 1624.417 381.325 1567.098 421.639 1498.435 421.008 C 1430.417 421.008 1372.458 381.325 1372.458 332.831 L 1372.458 326.525 L 1385.064 326.525 L 1385.064 332.831 C 1385.064 375.033 1434.824 409.046 1498.435 408.42 C 1562.69 408.42 1612.451 375.655 1611.829 332.831 C 1611.829 249.674 1385.686 264.172 1385.064 167.161 C 1385.064 118.658 1437.967 79.611 1498.435 78.974 C 1559.54 78.974 1611.829 118.658 1611.829 167.161 Z " fill="rgb(255,255,255)"/><path d=" M 1785.89 290.954 C 1782.838 290.954 1783.367 286.244 1786.384 286.244 C 1789.432 286.244 1788.912 290.954 1785.89 290.954 Z  M 1779.212 292.189 C 1776.169 292.189 1776.693 287.484 1779.705 287.484 C 1782.758 287.484 1782.234 292.189 1779.212 292.189 Z  M 1771.219 238.11 C 1768.175 238.11 1768.699 233.404 1771.717 233.404 C 1774.765 233.404 1774.24 238.11 1771.219 238.11 Z  M 1770.313 292.686 C 1767.269 292.686 1767.793 287.977 1770.806 287.977 C 1773.859 287.977 1773.334 292.686 1770.313 292.686 Z  M 1764.656 237.172 C 1761.608 237.172 1762.128 232.466 1765.149 232.466 C 1768.197 232.466 1767.673 237.172 1764.656 237.172 Z  M 1762.404 293.18 C 1759.355 293.18 1759.879 288.47 1762.897 288.47 C 1765.95 288.47 1765.425 293.18 1762.404 293.18 Z  M 1758.56 235.297 C 1755.507 235.297 1756.031 230.587 1759.053 230.587 C 1762.101 230.587 1761.572 235.297 1758.56 235.297 Z  M 1755.73 293.18 C 1752.682 293.18 1753.206 288.47 1756.223 288.47 C 1759.275 288.47 1758.751 293.18 1755.73 293.18 Z  M 1746.58 293.18 C 1743.537 293.18 1744.057 288.47 1747.079 288.47 C 1750.126 288.47 1749.602 293.18 1746.58 293.18 Z  M 1808.205 321.035 L 1774.867 261.335 L 1773.631 227.499 C 1769.126 227.49 1764.634 227.402 1760.257 226.473 C 1759.311 228.214 1758.04 230.134 1756.356 232.244 C 1756.356 232.244 1738.792 241.487 1737.405 247.031 C 1737.405 247.031 1734.17 259.509 1740.178 270.137 L 1742.026 296.477 L 1746.648 296.477 C 1746.648 296.477 1753.117 312.65 1752.193 333.908 L 1743.413 353.778 C 1743.413 353.778 1740.178 373.644 1745.723 393.981 L 1744.337 409.227 C 1744.337 409.227 1738.792 419.392 1735.095 421.707 C 1735.095 421.707 1738.329 427.248 1738.792 432.794 L 1742.488 437.877 L 1751.269 437.877 L 1751.331 435.433 L 1745.092 435.433 C 1745.092 435.433 1743.879 431.327 1746.31 427.982 L 1751.331 416.126 L 1755.13 393.932 C 1755.13 393.932 1757.56 357.142 1762.119 342.088 L 1765.464 296.33 L 1769.57 296.028 L 1801.647 329.775 C 1801.647 329.775 1775.498 343.896 1777.724 365.486 L 1771.69 372.156 C 1771.69 372.156 1761.381 372.889 1758.671 378.19 L 1758.671 391.844 L 1812.648 336.911 C 1812.648 336.911 1817.731 329.291 1808.205 321.035 Z " fill="rgb(255,255,255)"/><path d=" M 1745.003 152.938 C 1747.99 153.537 1750.916 154.408 1753.954 154.611 L 1753.274 152.736 L 1762.796 152.421 L 1762.796 147.662 L 1764.036 144.436 L 1765.342 137.501 L 1760.894 136.545 L 1760.894 128.609 C 1760.894 128.609 1760.259 122.895 1755.811 122.895 L 1751.119 120.363 C 1746.746 120.451 1742.49 123.264 1738.136 121.495 C 1736.332 120.767 1735.07 119.283 1733.501 118.199 C 1731.342 116.705 1728.916 116.51 1726.379 116.506 C 1726.175 116.506 1726.05 116.401 1726.005 116.256 C 1726.005 116.262 1726.007 116.267 1726.009 116.273 C 1723.876 116.69 1716.606 118.686 1719.477 126.208 C 1719.477 126.208 1721.983 134.574 1731.603 136.245 C 1731.603 136.245 1732.439 146.696 1744.564 150.459 L 1745.003 152.938 Z  M 1726.329 115.583 C 1726.373 115.571 1726.42 115.564 1726.472 115.564 C 1728.618 115.568 1730.644 115.68 1732.613 116.599 C 1734.253 117.359 1735.434 118.687 1736.896 119.71 C 1740.993 122.571 1745.351 120.136 1749.729 119.541 L 1750.013 111.947 L 1758.113 85.203 C 1758.113 85.203 1754.496 65.83 1747.267 62.653 L 1747.267 62.631 L 1732.324 62.631 L 1732.324 63.581 C 1732.324 63.581 1718.461 74.206 1718.461 86.686 C 1718.461 86.686 1715.231 92.894 1711.578 100.634 C 1712.871 101.234 1714.142 101.882 1715.448 102.46 C 1716.004 102.709 1715.671 103.594 1715.115 103.345 C 1713.791 102.762 1712.498 102.092 1711.183 101.474 C 1706.415 111.641 1701.106 124.113 1701.363 128.738 C 1701.363 128.738 1698.59 135.67 1705.06 147.218 C 1705.06 147.218 1733.248 179.565 1758.663 195.281 C 1758.663 195.281 1762.822 196.206 1762.36 214.685 L 1762.36 214.685 C 1762.36 214.685 1764.356 218.404 1760.717 225.611 C 1764.933 226.474 1769.257 226.553 1773.598 226.558 L 1773.593 226.407 C 1773.593 226.407 1781.214 217.516 1778.041 202.275 L 1799.631 216.565 C 1799.631 216.565 1805.665 220.057 1807.251 210.847 C 1807.251 210.847 1806.936 183.542 1801.853 180.365 L 1798.676 168.617 C 1798.676 168.617 1795.824 160.676 1787.563 159.726 L 1777.402 160.361 L 1779.627 163.854 L 1783.44 164.174 L 1784.071 167.347 L 1788.838 168.937 L 1795.504 182.587 L 1798.36 205.768 L 1784.706 194.02 C 1784.706 194.02 1787.563 184.173 1771.057 183.226 L 1759.304 169.253 L 1755.265 158.197 C 1750.377 159.606 1744.401 159.29 1740.14 156.806 C 1739.615 156.5 1740.171 155.735 1740.69 156.038 C 1742.173 156.901 1743.892 157.478 1745.709 157.78 C 1748.752 158.328 1752.061 158.125 1754.94 157.309 L 1754.3 155.562 C 1750.359 155.354 1746.636 154.039 1742.712 153.505 C 1742.109 153.426 1742.206 152.483 1742.81 152.563 C 1743.122 152.606 1743.433 152.653 1743.743 152.706 C 1743.803 152.715 1743.863 152.725 1743.922 152.734 C 1744.236 152.79 1744.548 152.848 1744.859 152.915 C 1744.908 152.919 1744.956 152.929 1726.329 115.583 Z  M 1747.324 70.185 C 1750.373 70.185 1749.849 74.894 1746.831 74.894 C 1743.783 74.894 1744.303 70.185 1747.324 70.185 L 1747.324 70.185 Z  M 1726.561 96.142 C 1729.609 96.142 1729.08 100.852 1726.068 100.852 C 1723.015 100.852 1723.54 96.142 1726.561 96.142 L 1726.561 96.142 Z  M 1728.289 86.5 C 1731.338 86.5 1730.814 91.21 1727.792 91.21 C 1724.748 91.21 1725.268 86.5 1728.289 86.5 L 1728.289 86.5 Z  M 1730.267 74.632 C 1733.319 74.632 1732.79 79.342 1729.774 79.342 C 1726.725 79.342 1727.245 74.632 1730.267 74.632 L 1730.267 74.632 Z  M 1728.098 71.002 C 1728.454 70.336 1729.058 69.878 1729.76 69.62 C 1730.329 69.411 1730.711 70.282 1730.138 70.491 C 1729.578 70.691 1729.152 71.024 1728.871 71.553 C 1728.578 72.09 1727.814 71.53 1728.098 71.002 L 1728.098 71.002 Z  M 1732.613 99.884 L 1732.613 103.06 C 1732.613 103.665 1731.671 103.562 1731.671 102.958 L 1731.671 99.786 C 1731.671 99.177 1732.613 99.279 1732.613 99.884 L 1732.613 99.884 Z  M 1732.492 114.444 C 1729.44 114.444 1729.969 109.738 1732.986 109.738 C 1736.034 109.738 1735.514 114.444 1732.492 114.444 L 1732.492 114.444 Z  M 1735.705 66.23 C 1738.754 66.23 1738.229 70.936 1735.208 70.936 C 1732.164 70.936 1732.689 66.23 1735.705 66.23 L 1735.705 66.23 Z  M 1737.829 76.622 C 1736.612 76.902 1735.816 77.951 1735.274 79.013 C 1734.995 79.551 1734.11 79.213 1734.39 78.676 C 1735.101 77.289 1736.097 76.05 1737.687 75.689 C 1738.283 75.556 1738.425 76.489 1737.829 76.622 L 1737.829 76.622 Z  M 1739.167 83.794 C 1736.119 83.794 1736.643 79.084 1739.66 79.084 C 1742.708 79.084 1742.188 83.794 1739.167 83.794 L 1739.167 83.794 Z  M 1741.837 67.39 C 1742.428 67.247 1742.57 68.185 1741.984 68.327 C 1740.917 68.58 1741.029 69.878 1741.157 70.713 C 1741.251 71.317 1740.313 71.46 1740.219 70.86 C 1739.998 69.411 1740.188 67.785 1741.837 67.39 L 1741.837 67.39 Z  M 1743.179 98.141 C 1744.636 98.368 1746.111 98.408 1747.574 98.635 C 1748.173 98.724 1748.08 99.665 1747.471 99.573 C 1746.014 99.35 1744.538 99.31 1743.081 99.083 C 1742.477 98.995 1742.575 98.053 1743.179 98.141 L 1743.179 98.141 Z  M 1743.143 87.58 C 1743.143 86.971 1744.085 87.078 1744.085 87.682 L 1744.085 91.343 C 1744.085 91.952 1743.143 91.846 1743.143 91.241 L 1743.143 87.58 L 1743.143 87.58 L 1743.143 87.58 Z  M 1747.324 92.183 C 1750.373 92.183 1749.849 96.893 1746.831 96.893 C 1743.783 96.893 1744.303 92.183 1747.324 92.183 L 1747.324 92.183 Z  M 1725.086 80.257 C 1725.117 79.649 1726.059 79.75 1726.028 80.355 C 1726.001 80.781 1725.819 81.164 1725.779 81.577 C 1725.726 82.181 1724.784 82.084 1724.837 81.479 C 1724.877 81.062 1725.063 80.684 1725.086 80.257 L 1725.086 80.257 Z  M 1745.987 64.705 C 1746.809 64.47 1747.662 64.697 1748.288 65.279 C 1748.728 65.688 1748.178 66.461 1747.738 66.048 C 1747.262 65.608 1746.756 65.465 1746.129 65.643 C 1745.543 65.807 1745.405 64.87 1745.987 64.705 L 1745.987 64.705 Z  M 1746.836 78.186 C 1747.009 77.822 1747.107 77.409 1747.383 77.102 C 1747.782 76.649 1748.555 77.2 1748.151 77.654 C 1747.938 77.898 1747.858 78.231 1747.725 78.52 C 1747.462 79.071 1746.573 78.738 1746.836 78.186 L 1746.836 78.186 Z  M 1749.053 87.744 C 1746.01 87.744 1746.529 83.039 1749.551 83.039 C 1752.594 83.039 1752.075 87.744 1749.053 87.744 L 1749.053 87.744 Z  M 1746.089 107.277 C 1743.042 107.277 1743.561 102.567 1746.582 102.567 C 1749.631 102.567 1749.107 107.277 1746.089 107.277 L 1746.089 107.277 Z  M 1743.37 114.444 C 1740.322 114.444 1740.846 109.738 1743.868 109.738 C 1746.912 109.738 1746.387 114.444 1743.37 114.444 L 1743.37 114.444 Z  M 1740.708 107.841 L 1740.708 105.153 C 1740.708 104.549 1741.651 104.651 1741.651 105.255 L 1741.651 107.939 C 1741.651 108.548 1740.708 108.446 1740.708 107.841 L 1740.708 107.841 Z  M 1738.855 116 C 1738.513 115.617 1738.509 115.164 1738.509 114.675 C 1738.504 114.066 1739.446 114.173 1739.446 114.773 C 1739.451 115.013 1739.429 115.222 1739.593 115.404 C 1739.998 115.857 1739.255 116.453 1738.855 116 L 1738.855 116 Z  M 1737.433 91.69 C 1740.486 91.69 1739.962 96.4 1736.94 96.4 C 1733.892 96.4 1734.417 91.69 1737.433 91.69 L 1737.433 91.69 Z  M 1733.626 88.313 L 1733.626 84.408 C 1733.626 83.799 1734.568 83.9 1734.568 84.505 L 1734.568 88.415 C 1734.568 89.019 1733.626 88.917 1733.626 88.313 L 1733.626 88.313 Z  M 1736.198 104.802 C 1733.151 104.802 1733.679 100.097 1736.692 100.097 C 1739.744 100.097 1739.22 104.802 1736.198 104.802 L 1736.198 104.802 Z  M 1728.92 92.983 C 1728.316 92.983 1728.418 92.041 1729.023 92.041 L 1731.706 92.041 C 1732.315 92.041 1732.209 92.983 1731.609 92.983 L 1728.92 92.983 L 1728.92 92.983 L 1728.92 92.983 Z  M 1728.92 108.361 L 1727.947 108.361 C 1727.338 108.361 1727.441 107.419 1728.045 107.419 L 1729.023 107.419 C 1729.627 107.419 1729.524 108.361 1728.92 108.361 L 1728.92 108.361 Z " fill-rule="evenodd" fill="rgb(255,255,255)"/><path d=" M 27.607 162.167 C 49.077 113.544 95.518 79.441 147.283 78.974 C 219.096 78.974 280.187 144.487 279.565 221.969 C 279.565 221.969 277.588 408.42 279.565 414.712 C 281.537 421.008 350.574 390.171 344.411 397.525 C 338.252 404.87 285.621 424.456 278.685 426.495 C 271.749 428.535 269.661 424.811 267.59 415.343 C 265.666 406.54 266.959 221.969 266.959 221.969 C 266.959 148.895 214.679 92.207 147.283 91.576 C 80.509 91.576 27.607 148.895 27.607 221.969 L 27.607 228.266 L 27.607 414.712 L 27.607 421.008 L 15.001 421.008 L 15.001 414.712 L 15.001 228.266 L 15.001 221.969 L 15.001 85.28 L 15.001 78.974 L 27.607 78.974 L 27.607 85.28 L 27.607 162.167 L 27.607 162.167 Z " fill="rgb(255,255,255)"/><path d=" M 597.616 161.647 L 356.339 84.168 C 356.339 84.168 357.629 72.58 344.321 73.011 L 302.247 65.284 L 340.886 86.75 C 340.886 86.75 340.886 91.037 353.767 88.034 L 595.471 165.739 C 595.471 165.739 599.336 168.715 597.616 161.647 Z " fill="rgb(255,255,255)"/><path d=" M 459.164 105.528 C 459.164 105.528 459.693 108.451 464.447 105.528 C 464.447 105.528 470.134 106.621 469.037 88.341 C 469.037 88.341 477.813 87.608 472.694 75.544 C 472.694 75.544 466.953 57.993 442.217 62.014 C 442.217 62.014 427.718 64.907 430.642 84.12 C 430.642 84.12 436.858 90.536 436.858 97.112 L 434.663 112.104 C 434.663 112.104 425.888 110.277 417.845 114.668 C 417.845 114.668 395.905 133.68 392.981 157.084 C 392.981 157.084 392.248 130.757 399.197 124.172 C 399.197 124.172 404.316 116.498 405.777 104.795 C 405.777 104.795 390.057 112.472 388.226 100.04 C 388.226 100.04 382.743 99.311 382.743 105.892 C 382.743 105.892 392.981 108.451 391.15 117.96 C 391.15 117.96 377.256 148.308 378.722 157.084 L 378.611 184.503 C 378.611 184.503 379.451 196.207 392.981 180.851 C 392.981 180.851 404.316 172.076 414.553 143.189 C 414.553 143.189 417.845 135.876 418.579 152.693 C 418.579 152.693 413.092 189.626 413.824 201.33 L 408.705 266.78 L 407.24 370.625 L 411.265 381.96 L 411.265 421.088 L 420.769 407.922 L 434.663 429.494 L 464.282 426.202 L 477.813 437.173 L 484.029 309.196 C 484.029 309.196 478.541 231.313 472.325 217.05 C 472.325 217.05 468.303 209.737 465.016 195.474 C 465.016 195.474 465.745 185.601 467.21 180.851 L 470.134 191.088 C 470.134 191.088 474.525 196.207 484.029 183.041 C 484.029 183.041 489.516 174.27 490.978 155.982 C 490.978 155.982 494.999 134.778 490.978 127.096 C 490.978 127.096 480.372 117.592 472.694 123.443 L 482.567 137.337 C 482.567 137.337 487.686 147.575 482.567 159.643 L 477.079 170.609 L 472.325 139.164 C 472.325 139.164 464.647 123.808 458.8 119.053 C 458.8 119.053 453.681 115.765 453.312 108.083 L 454.41 104.061 L 459.164 105.528 L 459.164 105.528 Z " fill="rgb(255,255,255)"/><path d=" M 429 161.647 L 442.219 199.73 L 448.684 298.585 L 429 213.424 L 415.164 179.317 L 429 161.647 L 429 161.647 Z " fill="rgb(0,0,0)"/><path d=" M 438.841 112.861 L 450.825 137.681 L 450.825 170.206 L 438.841 141.533 L 438.841 112.861 L 438.841 112.861 Z " fill="rgb(0,0,0)"/><path d=" M 465.701 139.43 L 447.727 174.945 C 447.727 174.945 448.154 194.202 456.716 207.897 L 460.995 266.953 L 469.127 305.036 L 477.884 271.129 L 461.92 193.372 L 465.701 139.43 L 465.701 139.43 Z " fill="rgb(0,0,0)"/><path d=" M 462.807 403.859 C 462.807 403.859 418.769 306.181 415.165 268.205 C 411.562 230.227 408.584 275.065 408.584 275.065 L 408.887 375.258 L 411.264 416.7 L 423.865 395.728 L 438.839 419.691 L 423.434 364.06 L 462.807 403.859 L 462.807 403.859 Z " fill="rgb(0,0,0)"/><circle vector-effect="non-scaling-stroke" cx="681.9423680113141" cy="263.74088402020226" r="83.70919589618234" fill="rgb(152,32,48)"/><circle vector-effect="non-scaling-stroke" cx="681.8136590733014" cy="263.048304856521" r="69.74330153573646" fill="rgb(255,255,255)"/><g><g><rect x="672.226" y="186.495" width="17.052" height="17.052" transform="matrix(0.707,-0.707,0.707,0.707,61.487,538.485)" fill="rgb(255,255,255)"/><rect x="672.192" y="323.33" width="17.052" height="17.052" transform="matrix(-0.707,-0.707,0.707,-0.707,927.402,1047.854)" fill="rgb(255,255,255)"/><rect x="625.135" y="206.437" width="17.06" height="17.06" transform="matrix(0,-1,1,0,418.699,848.632)" fill="rgb(255,255,255)"/><rect x="720.84" y="302.913" width="17.06" height="17.06" transform="matrix(-1,0,0,-1,1458.741,622.886)" fill="rgb(255,255,255)"/><rect x="605.582" y="254.902" width="17.052" height="17.052" transform="matrix(-0.707,-0.707,0.707,-0.707,862.078,883.94)" fill="rgb(255,255,255)"/><rect x="742.461" y="254.891" width="17.052" height="17.052" transform="matrix(-0.707,0.707,-0.707,-0.707,1468.28,-81.348)" fill="rgb(255,255,255)"/><rect x="625.384" y="301.657" width="17.06" height="17.06" transform="matrix(-1,0,0,-1,1267.827,620.374)" fill="rgb(255,255,255)"/><rect x="721.86" y="205.952" width="17.06" height="17.06" transform="matrix(0,1,-1,0,944.873,-515.908)" fill="rgb(255,255,255)"/><rect x="647.299" y="192.758" width="17.058" height="17.058" transform="matrix(0.391,-0.92,0.92,0.391,214.057,726.134)" fill="rgb(255,255,255)"/><rect x="698.68" y="318.3" width="17.058" height="17.058" transform="matrix(-0.92,-0.391,0.391,-0.92,1230.239,904.239)" fill="rgb(255,255,255)"/><rect x="609.869" y="227.812" width="17.06" height="17.06" transform="matrix(-0.375,-0.927,0.927,-0.375,631.21,898.241)" fill="rgb(255,255,255)"/><rect x="734.988" y="282.483" width="17.06" height="17.06" transform="matrix(-0.927,0.375,-0.375,-0.927,1541.907,281.963)" fill="rgb(255,255,255)"/><rect x="611.263" y="279.864" width="17.058" height="17.058" transform="matrix(-0.92,-0.391,0.391,-0.92,1077.403,796.235)" fill="rgb(255,255,255)"/><rect x="736.741" y="228.463" width="17.058" height="17.058" transform="matrix(-0.391,0.92,-0.92,-0.391,1254.886,-356.206)" fill="rgb(255,255,255)"/><rect x="645.979" y="317.053" width="17.06" height="17.06" transform="matrix(-0.927,0.375,-0.375,-0.927,1383.349,381.958)" fill="rgb(255,255,255)"/><rect x="700.641" y="191.872" width="17.06" height="17.06" transform="matrix(0.375,0.927,-0.927,0.375,629.002,-532.167)" fill="rgb(255,255,255)"/></g></g><g><g><rect x="672.615" y="190.159" width="16.366" height="16.366" transform="matrix(0.707,-0.707,0.707,0.707,59.152,539.49)" fill="rgb(28,23,24)"/><rect x="672.607" y="321.52" width="16.366" height="16.366" transform="matrix(-0.707,-0.707,0.707,-0.707,929.045,1044.23)" fill="rgb(28,23,24)"/><rect x="627.452" y="209.304" width="16.374" height="16.374" transform="matrix(0,-1,1,0,418.148,853.13)" fill="rgb(28,23,24)"/><rect x="719.303" y="301.895" width="16.374" height="16.374" transform="matrix(-1,0,0,-1,1454.98,620.164)" fill="rgb(28,23,24)"/><rect x="608.679" y="255.848" width="16.366" height="16.366" transform="matrix(-0.707,-0.707,0.707,-0.707,866.352,886.916)" fill="rgb(28,23,24)"/><rect x="740.083" y="255.815" width="16.366" height="16.366" transform="matrix(-0.707,0.707,-0.707,-0.707,1464.044,-78.431)" fill="rgb(28,23,24)"/><rect x="627.691" y="300.69" width="16.374" height="16.374" transform="matrix(-1,0,0,-1,1271.755,617.754)" fill="rgb(28,23,24)"/><rect x="720.282" y="208.84" width="16.374" height="16.374" transform="matrix(0,1,-1,0,945.496,-511.442)" fill="rgb(28,23,24)"/><rect x="648.719" y="196.212" width="16.371" height="16.371" transform="matrix(0.391,-0.92,0.92,0.391,211.849,729.018)" fill="rgb(28,23,24)"/><rect x="698.071" y="316.667" width="16.371" height="16.371" transform="matrix(-0.92,-0.391,0.391,-0.92,1229.182,900.069)" fill="rgb(28,23,24)"/><rect x="612.775" y="229.803" width="16.373" height="16.373" transform="matrix(-0.375,-0.927,0.927,-0.375,633.206,902.882)" fill="rgb(28,23,24)"/><rect x="732.865" y="282.316" width="16.373" height="16.373" transform="matrix(-0.927,0.375,-0.375,-0.927,1536.964,281.904)" fill="rgb(28,23,24)"/><rect x="614.171" y="279.78" width="16.371" height="16.371" transform="matrix(-0.92,-0.391,0.391,-0.92,1082.494,796.418)" fill="rgb(28,23,24)"/><rect x="734.57" y="230.409" width="16.371" height="16.371" transform="matrix(-0.391,0.92,-0.92,-0.391,1252.863,-351.662)" fill="rgb(28,23,24)"/><rect x="647.442" y="315.492" width="16.373" height="16.373" transform="matrix(-0.927,0.375,-0.375,-0.927,1384.792,377.869)" fill="rgb(28,23,24)"/><rect x="699.944" y="195.342" width="16.373" height="16.373" transform="matrix(0.375,0.927,-0.927,0.375,631.251,-529.248)" fill="rgb(28,23,24)"/></g><g><rect x="673.26" y="195.448" width="15.186" height="15.186" transform="matrix(0.707,-0.707,0.707,0.707,55.845,540.905)" fill="rgb(255,255,255)"/><rect x="673.29" y="317.407" width="15.186" height="15.186" transform="matrix(-0.707,-0.707,0.707,-0.707,932.529,1036.267)" fill="rgb(255,255,255)"/><rect x="631.406" y="213.228" width="15.193" height="15.193" transform="matrix(0,-1,1,0,418.178,859.827)" fill="rgb(255,255,255)"/><rect x="716.634" y="299.143" width="15.193" height="15.193" transform="matrix(-1,0,0,-1,1448.46,613.479)" fill="rgb(255,255,255)"/><rect x="613.973" y="256.469" width="15.186" height="15.186" transform="matrix(-0.707,-0.707,0.707,-0.707,874.36,890.296)" fill="rgb(255,255,255)"/><rect x="735.969" y="256.398" width="15.186" height="15.186" transform="matrix(-0.707,0.707,-0.707,-0.707,1456.01,-75.117)" fill="rgb(255,255,255)"/><rect x="631.628" y="298.024" width="15.193" height="15.193" transform="matrix(-1,0,0,-1,1278.449,611.242)" fill="rgb(255,255,255)"/><rect x="717.542" y="212.798" width="15.193" height="15.193" transform="matrix(0,1,-1,0,945.533,-504.744)" fill="rgb(255,255,255)"/><rect x="651.13" y="201.14" width="15.191" height="15.191" transform="matrix(0.391,-0.92,0.92,0.391,208.965,733.337)" fill="rgb(255,255,255)"/><rect x="696.992" y="312.859" width="15.191" height="15.191" transform="matrix(-0.92,-0.391,0.391,-0.92,1227.699,890.972)" fill="rgb(255,255,255)"/><rect x="617.74" y="232.221" width="15.193" height="15.193" transform="matrix(-0.375,-0.927,0.927,-0.375,637.527,909.451)" fill="rgb(255,255,255)"/><rect x="729.19" y="281.021" width="15.193" height="15.193" transform="matrix(-0.927,0.375,-0.375,-0.927,1528.037,279.871)" fill="rgb(255,255,255)"/><rect x="619.143" y="278.63" width="15.191" height="15.191" transform="matrix(-0.92,-0.391,0.391,-0.92,1091.591,794.792)" fill="rgb(255,255,255)"/><rect x="730.807" y="232.752" width="15.191" height="15.191" transform="matrix(-0.391,0.92,-0.92,-0.391,1248.422,-345.218)" fill="rgb(255,255,255)"/><rect x="649.926" y="311.805" width="15.193" height="15.193" transform="matrix(-0.927,0.375,-0.375,-0.927,1386.838,368.916)" fill="rgb(255,255,255)"/><rect x="698.717" y="200.301" width="15.193" height="15.193" transform="matrix(0.375,0.927,-0.927,0.375,634.166,-524.834)" fill="rgb(255,255,255)"/></g></g><path d=" M 748.829 264.275 C 748.829 301.084 718.988 330.921 682.182 330.921 C 645.372 330.921 615.532 301.084 615.532 264.275 C 615.532 227.465 645.372 197.628 682.182 197.628 C 718.988 197.628 748.829 227.465 748.829 264.275 Z " fill="rgb(255,255,255)"/><circle vector-effect="non-scaling-stroke" cx="681.7972755071811" cy="261.27785519322634" r="61.018259853760924" fill="rgb(255,255,255)"/><path d=" M 630.158 262.578 C 629.466 234.072 652.048 210.368 680.554 209.676 C 709.06 208.985 732.765 231.567 733.456 260.073 C 734.148 288.579 711.565 312.284 683.06 312.975 C 654.553 313.666 630.849 291.084 630.158 262.578 Z " fill="rgb(0,0,0)"/><g><g><rect x="674.185" y="205.41" width="12.659" height="12.659" transform="matrix(0.69,-0.724,0.724,0.69,57.746,558.284)" fill="rgb(28,23,24)"/><rect x="676.167" y="305.097" width="12.659" height="12.659" transform="matrix(-0.724,-0.69,0.69,-0.724,961.702,1007.726)" fill="rgb(28,23,24)"/><rect x="639.928" y="220.067" width="12.665" height="12.665" transform="matrix(-0.024,-1,1,-0.024,435.433,877.906)" fill="rgb(28,23,24)"/><rect x="710.777" y="288.751" width="12.665" height="12.665" transform="matrix(-1,0.024,-0.024,-1,1441.092,572.875)" fill="rgb(28,23,24)"/><rect x="625.531" y="255.615" width="12.659" height="12.659" transform="matrix(-0.724,-0.69,0.69,-0.724,908.548,887.49)" fill="rgb(28,23,24)"/><rect x="725.175" y="253.648" width="12.659" height="12.659" transform="matrix(-0.69,0.724,-0.724,-0.69,1424.372,-90.199)" fill="rgb(28,23,24)"/><rect x="640.033" y="289.553" width="12.665" height="12.665" transform="matrix(-1,0.024,-0.024,-1,1299.645,576.177)" fill="rgb(28,23,24)"/><rect x="708.764" y="218.782" width="12.665" height="12.665" transform="matrix(0.024,1,-1,0.024,922.988,-495.177)" fill="rgb(28,23,24)"/><rect x="655.473" y="208.538" width="12.659" height="12.659" transform="matrix(0.368,-0.93,0.93,0.368,218.505,751.186)" fill="rgb(28,23,24)"/><rect x="693.593" y="301.218" width="12.659" height="12.659" transform="matrix(-0.93,-0.368,0.368,-0.93,1237.585,851.051)" fill="rgb(28,23,24)"/><rect x="628.595" y="236.235" width="12.66" height="12.66" transform="matrix(-0.397,-0.918,0.918,-0.397,664.31,921.611)" fill="rgb(28,23,24)"/><rect x="720.93" y="273.777" width="12.66" height="12.66" transform="matrix(-0.918,0.397,-0.397,-0.918,1505.957,248.527)" fill="rgb(28,23,24)"/><rect x="628.154" y="274.282" width="12.659" height="12.659" transform="matrix(-0.93,-0.368,0.368,-0.93,1121.209,774.99)" fill="rgb(28,23,24)"/><rect x="720.876" y="236.21" width="12.659" height="12.659" transform="matrix(-0.368,0.93,-0.93,-0.368,1220.3,-344.412)" fill="rgb(28,23,24)"/><rect x="655.604" y="301.006" width="12.66" height="12.66" transform="matrix(-0.918,0.397,-0.397,-0.918,1391.48,326.679)" fill="rgb(28,23,24)"/><rect x="693.198" y="208.676" width="12.66" height="12.66" transform="matrix(0.397,0.918,-0.918,0.397,619.203,-512.397)" fill="rgb(28,23,24)"/></g></g><g><path d=" M 678.227 304.287 L 680.517 306.47 C 681.427 307.336 682.869 307.301 683.735 306.392 L 685.917 304.101 C 686.784 303.191 686.749 301.749 685.84 300.883 L 683.548 298.7 C 682.639 297.833 681.197 297.869 680.33 298.779 L 678.148 301.069 C 677.281 301.979 677.316 303.421 678.227 304.287 Z " fill="rgb(255,255,255)"/><path d=" M 676.636 221.293 L 678.926 223.475 C 679.836 224.342 681.278 224.307 682.145 223.397 L 684.327 221.107 C 685.194 220.197 685.159 218.755 684.249 217.888 L 681.958 215.705 C 681.049 214.84 679.607 214.874 678.74 215.784 L 676.557 218.074 C 675.692 218.984 675.726 220.426 676.636 221.293 Z " fill="rgb(255,255,255)"/><path d=" M 724.437 264.1 L 726.62 261.808 C 727.486 260.898 727.451 259.456 726.541 258.59 L 724.251 256.408 C 723.341 255.541 721.899 255.577 721.032 256.486 L 718.85 258.777 C 717.984 259.686 718.018 261.128 718.928 261.995 L 721.218 264.177 C 722.129 265.044 723.571 265.009 724.437 264.1 Z " fill="rgb(255,255,255)"/><path d=" M 641.443 265.689 L 643.625 263.399 C 644.492 262.489 644.457 261.047 643.547 260.181 L 641.256 257.998 C 640.347 257.132 638.904 257.167 638.038 258.076 L 635.856 260.367 C 634.989 261.277 635.024 262.719 635.934 263.585 L 638.225 265.768 C 639.134 266.635 640.576 266.599 641.443 265.689 Z " fill="rgb(255,255,255)"/><path d=" M 694.629 302.27 L 697.57 303.435 C 698.738 303.898 700.062 303.325 700.525 302.157 L 701.689 299.216 C 702.152 298.048 701.58 296.724 700.412 296.261 L 697.47 295.096 C 696.302 294.633 694.979 295.206 694.516 296.374 L 693.35 299.315 C 692.888 300.483 693.461 301.807 694.629 302.27 Z " fill="rgb(255,255,255)"/><path d=" M 662.064 225.914 L 665.005 227.08 C 666.173 227.543 667.497 226.969 667.96 225.802 L 669.125 222.861 C 669.588 221.693 669.015 220.368 667.847 219.906 L 664.906 218.741 C 663.737 218.278 662.414 218.85 661.951 220.018 L 660.785 222.96 C 660.322 224.128 660.896 225.451 662.064 225.914 Z " fill="rgb(255,255,255)"/><path d=" M 722.42 247.697 L 723.585 244.756 C 724.048 243.588 723.475 242.264 722.307 241.801 L 719.366 240.636 C 718.198 240.173 716.874 240.745 716.411 241.914 L 715.245 244.855 C 714.782 246.023 715.356 247.347 716.524 247.81 L 719.465 248.975 C 720.633 249.438 721.957 248.865 722.42 247.697 Z " fill="rgb(255,255,255)"/><path d=" M 646.065 280.262 L 647.229 277.321 C 647.692 276.153 647.12 274.828 645.952 274.366 L 643.01 273.201 C 641.842 272.738 640.519 273.31 640.056 274.478 L 638.89 277.42 C 638.428 278.588 639.001 279.912 640.169 280.374 L 643.11 281.54 C 644.277 282.003 645.602 281.43 646.065 280.262 Z " fill="rgb(255,255,255)"/><path d=" M 709.655 293.764 L 712.818 293.688 C 714.074 293.657 715.069 292.612 715.039 291.357 L 714.962 288.193 C 714.931 286.938 713.886 285.943 712.631 285.973 L 709.468 286.05 C 708.212 286.08 707.217 287.124 707.247 288.381 L 707.324 291.543 C 707.354 292.799 708.399 293.794 709.655 293.764 Z " fill="rgb(255,255,255)"/><path d=" M 649.845 236.203 L 653.007 236.126 C 654.264 236.095 655.259 235.051 655.228 233.795 L 655.152 230.632 C 655.121 229.376 654.076 228.381 652.821 228.411 L 649.657 228.488 C 648.401 228.518 647.406 229.563 647.437 230.819 L 647.514 233.983 C 647.544 235.238 648.588 236.233 649.845 236.203 Z " fill="rgb(255,255,255)"/><path d=" M 713.914 232.67 L 713.837 229.507 C 713.807 228.252 712.763 227.257 711.506 227.287 L 708.344 227.364 C 707.087 227.394 706.092 228.439 706.122 229.694 L 706.199 232.858 C 706.23 234.113 707.275 235.108 708.53 235.078 L 711.693 235.001 C 712.949 234.971 713.944 233.927 713.914 232.67 Z " fill="rgb(255,255,255)"/><path d=" M 656.352 292.481 L 656.276 289.318 C 656.246 288.062 655.201 287.067 653.945 287.098 L 650.782 287.175 C 649.526 287.205 648.531 288.249 648.562 289.505 L 648.638 292.668 C 648.669 293.924 649.713 294.919 650.969 294.888 L 654.132 294.811 C 655.388 294.781 656.383 293.737 656.352 292.481 Z " fill="rgb(255,255,255)"/><path d=" M 719.827 280.739 L 722.73 279.483 C 723.883 278.985 724.414 277.643 723.916 276.49 L 722.66 273.587 C 722.161 272.434 720.82 271.902 719.667 272.401 L 716.763 273.657 C 715.61 274.156 715.078 275.497 715.578 276.65 L 716.833 279.554 C 717.332 280.707 718.673 281.238 719.827 280.739 Z " fill="rgb(255,255,255)"/><path d=" M 642.808 249.775 L 645.712 248.518 C 646.865 248.02 647.396 246.679 646.898 245.526 L 645.642 242.622 C 645.143 241.469 643.802 240.937 642.649 241.436 L 639.745 242.692 C 638.591 243.191 638.06 244.532 638.56 245.686 L 639.815 248.589 C 640.314 249.742 641.655 250.273 642.808 249.775 Z " fill="rgb(255,255,255)"/><path d=" M 700.889 222.499 L 699.633 219.595 C 699.134 218.442 697.794 217.911 696.641 218.409 L 693.736 219.666 C 692.583 220.164 692.052 221.505 692.55 222.658 L 693.807 225.562 C 694.305 226.715 695.647 227.247 696.8 226.748 L 699.703 225.492 C 700.857 224.993 701.388 223.652 700.889 222.499 Z " fill="rgb(255,255,255)"/><path d=" M 669.924 299.517 L 668.669 296.613 C 668.17 295.46 666.829 294.929 665.675 295.427 L 662.772 296.684 C 661.619 297.182 661.088 298.523 661.586 299.676 L 662.842 302.581 C 663.341 303.734 664.682 304.265 665.835 303.766 L 668.739 302.51 C 669.892 302.012 670.424 300.671 669.924 299.517 Z " fill="rgb(255,255,255)"/></g></g></svg>